<svg height="511pt" viewBox="0 -1 511.99943 511" width="511pt" xmlns="http://www.w3.org/2000/svg"><path d="m510.519531 358.898438c-1.960937-3.1875-5.535156-5.023438-9.269531-4.734376l-252.039062 18.914063v-23.40625l172.769531-11.824219c3.4375-.234375 6.511719-2.222656 8.136719-5.261718 1.625-3.039063 1.566406-6.703126-.148438-9.691407l-182.082031-317.371093c-2.257813-3.929688-6.871094-5.851563-11.25-4.6875-4.378907 1.167968-7.425781 5.132812-7.425781 9.664062v42.726562l-180.589844 292.296876c-1.960938 3.171874-1.992188 7.171874-.082032 10.375 1.808594 3.039062 5.078126 4.882812 8.585938 4.882812.191406 0 .382812-.007812.578125-.019531l171.511719-9.839844v23.65625l-219.964844 16.503906c-3.035156.230469-5.800781 1.824219-7.511719 4.339844-1.7148435 2.515625-2.191406 5.675781-1.292969 8.582031 0 0 12.46875 38.109375 12.472657 38.121094 18.035156 41.683594 59.050781 68.613281 104.492187 68.613281h243.515625c39.648438 0 77.003907-21.089843 97.492188-55.039062l52.144531-86.394531c1.933594-3.203126 1.914062-7.21875-.042969-10.40625zm-261.308593-310.875 155.457031 270.960937-155.457031 10.636719zm-20 43.253906v239.609375l-153.480469 8.808593zm212.082031 354.089844c-16.886719 27.984374-47.683594 45.371093-80.367188 45.371093h-243.515625c-32.589844 0-62.417968-16.804687-79.410156-43.796875l258.589844-20.21875c5.503906-.429687 9.621094-5.242187 9.191406-10.75-.433594-5.503906-5.238281-9.609375-10.75-9.1875l-266.316406 20.820313c-.351563-1.019531-.6875-2.042969-1.003906-3.066407l-4.457032-14.449218 460.171875-34.53125-10.339843 17.136718-64.390626 5.058594c-5.503906.429688-9.617187 5.246094-9.183593 10.75.429687 5.507813 5.242187 9.617188 10.75 9.1875l50.113281-3.9375zm0 0"/><path d="m346.597656 422.660156c-.648437 0-1.308594-.0625-1.949218-.191406-.640626-.128906-1.269532-.328125-1.867188-.578125-.601562-.25-1.183594-.5625-1.730469-.921875-.542969-.359375-1.0625-.78125-1.519531-1.238281-.460938-.460938-.882812-.972657-1.242188-1.519531-.359374-.542969-.667968-1.121094-.917968-1.730469-.25-.601563-.441406-1.230469-.570313-1.871094-.132812-.640625-.191406-1.300781-.191406-1.949219 0-.648437.058594-1.3125.191406-1.949218.128907-.640626.320313-1.273438.570313-1.871094.25-.609375.558594-1.191406.917968-1.730469.359376-.550781.78125-1.058594 1.242188-1.519531.457031-.460938.976562-.878906 1.519531-1.238282.546875-.359374 1.128907-.671874 1.730469-.921874.597656-.25 1.226562-.449219 1.867188-.570313 3.25-.660156 6.699218.410156 9.03125 2.730469.460937.460937.878906.96875 1.238281 1.519531.363281.539063.671875 1.121094.921875 1.730469.25.601562.441406 1.230468.570312 1.871094.128906.640624.1875 1.300781.1875 1.949218 0 .648438-.058594 1.308594-.1875 1.949219s-.320312 1.269531-.570312 1.871094c-.25.609375-.558594 1.1875-.921875 1.730469-.367188.546874-.777344 1.058593-1.238281 1.519531-1.871094 1.859375-4.441407 2.929687-7.082032 2.929687zm0 0"/></svg>