<svg id="Capa_1" enable-background="new 0 0 512 512" height="512" viewBox="0 0 512 512" width="512" xmlns="http://www.w3.org/2000/svg"><g><path d="m186.375 85.156c0 4.142 3.357 7.5 7.5 7.5h124.25c4.143 0 7.5-3.358 7.5-7.5s-3.357-7.5-7.5-7.5h-124.25c-4.143 0-7.5 3.358-7.5 7.5z"/><circle cx="256" cy="38.562" r="7.5"/><path d="m256 139.781c-42.673 0-77.391 34.717-77.391 77.391s34.718 77.391 77.391 77.391 77.391-34.717 77.391-77.391-34.718-77.391-77.391-77.391zm0 139.781c-34.402 0-62.391-27.988-62.391-62.391s27.988-62.391 62.391-62.391 62.391 27.988 62.391 62.391-27.989 62.391-62.391 62.391z"/><path d="m280.684 195.007-30.681 30.682-18.687-18.687c-2.929-2.929-7.677-2.93-10.607 0-2.929 2.929-2.929 7.678 0 10.606l20.128 20.128c5.055 5.054 13.276 5.054 18.331 0l32.123-32.123c2.929-2.929 2.929-7.678 0-10.606-2.93-2.928-7.678-2.928-10.607 0z"/><path d="m349.188 372.75h-155.313c-4.143 0-7.5 3.358-7.5 7.5s3.357 7.5 7.5 7.5h155.312c4.143 0 7.5-3.358 7.5-7.5s-3.357-7.5-7.499-7.5z"/><path d="m349.188 341.688h-155.313c-4.143 0-7.5 3.358-7.5 7.5s3.357 7.5 7.5 7.5h155.312c4.143 0 7.5-3.358 7.5-7.5s-3.357-7.5-7.499-7.5z"/><path d="m349.188 403.812h-155.313c-4.143 0-7.5 3.358-7.5 7.5s3.357 7.5 7.5 7.5h155.312c4.143 0 7.5-3.358 7.5-7.5s-3.357-7.5-7.499-7.5z"/><circle cx="162.812" cy="349.188" r="7.5"/><circle cx="162.812" cy="380.25" r="7.5"/><circle cx="162.812" cy="411.312" r="7.5"/><path d="m426.844 178.647c4.143 0 7.5-3.358 7.5-7.5v-92.053c0-17.92-14.579-32.5-32.5-32.5h-45.156v-3.031c0-6.893-5.607-12.5-12.5-12.5h-50.358c-3.523-17.75-19.323-31.063-37.83-31.063-18.506 0-34.305 13.312-37.829 31.062h-50.358c-6.893 0-12.5 5.607-12.5 12.5v3.031h-45.156c-17.921 0-32.5 14.58-32.5 32.5v400.407c0 17.92 14.579 32.5 32.5 32.5h291.688c17.921 0 32.5-14.58 32.5-32.5v-273.353c0-4.142-3.357-7.5-7.5-7.5s-7.5 3.358-7.5 7.5v273.353c0 9.649-7.851 17.5-17.5 17.5h-291.689c-9.649 0-17.5-7.851-17.5-17.5v-400.406c0-9.649 7.851-17.5 17.5-17.5h45.156v16.062h-29.094c-9.649 0-17.5 7.851-17.5 17.5v319.261c0 4.142 3.357 7.5 7.5 7.5s7.5-3.358 7.5-7.5v-319.261c0-1.378 1.121-2.5 2.5-2.5h29.094v8.031c0 12.407 10.094 22.5 22.5 22.5h16.062c4.143 0 7.5-3.358 7.5-7.5s-3.357-7.5-7.5-7.5h-16.062c-4.136 0-7.5-3.364-7.5-7.5v-54.625h52.225c5.205 0 9.582-4.077 9.966-9.278.907-12.215 11.228-21.784 23.497-21.784s22.59 9.569 23.497 21.78c.384 5.205 4.761 9.282 9.966 9.282h52.225v54.625c0 4.136-3.364 7.5-7.5 7.5h-104.313c-4.143 0-7.5 3.358-7.5 7.5s3.357 7.5 7.5 7.5h104.312c12.406 0 22.5-10.093 22.5-22.5v-8.031h29.094c1.379 0 2.5 1.122 2.5 2.5v368.281c0 1.378-1.121 2.5-2.5 2.5h-259.562c-1.379 0-2.5-1.122-2.5-2.5v-14.02c0-4.142-3.357-7.5-7.5-7.5s-7.5 3.358-7.5 7.5v14.02c0 9.649 7.851 17.5 17.5 17.5h259.562c9.649 0 17.5-7.851 17.5-17.5v-368.281c0-9.649-7.851-17.5-17.5-17.5h-29.094v-16.062h45.156c9.649 0 17.5 7.851 17.5 17.5v92.054c.001 4.142 3.358 7.499 7.501 7.499z"/></g></svg>