<svg height="512" viewBox="0 0 48 48" width="512" xmlns="http://www.w3.org/2000/svg"><g stroke-linecap="round" stroke-linejoin="round" transform="translate(-592.95 580.22)"><g stroke-miterlimit="9.87"><path d="m616.95-575.22c-7.4298 0-13.443 6.0136-13.443 13.443v5.0605a1 1 0 0 0 1 1 1 1 0 0 0 1-1v-5.0605c0-6.3564 5.087-11.443 11.443-11.443 6.3559 0 11.441 5.0869 11.441 11.443v11.285a1 1 0 0 0 1 1 1 1 0 0 0 1-1v-11.285c0-7.4298-6.011-13.443-13.441-13.443z"/><path d="m604.51-553.72a1 1 0 0 0 -1 1 1 1 0 0 0 1 1 1 1 0 0 0 1-1 1 1 0 0 0 -1-1z"/><path d="m604.51-549.72a1 1 0 0 0 -1 1v9.5898c0 1.2662 1.4533 2.1175 2.5586 1.5l2.8946-1.6171c1.1007-.615 2.4383-.615 3.539 0l2.8922 1.6171c.967.5403 2.151.5403 3.118 0l2.8919-1.6171c1.101-.6151 2.439-.6148 3.539 0l2.895 1.6171c1.105.6165 2.556-.2346 2.556-1.5v-7.3652a1 1 0 0 0 -1-1 1 1 0 0 0 -1 1v6.8848l-2.474-1.3828c-1.704-.9525-3.786-.9524-5.49 0l-2.8949 1.6172c-.363.2029-.801.2029-1.164 0l-2.8946-1.6172c-1.7045-.9524-3.7858-.9523-5.4902 0l-2.4766 1.3847v-9.1113a1 1 0 0 0 -1-1z"/></g><path d="m612.03-563.25c-1.9881-.0001-3.6211 1.6329-3.6211 3.6211 0 1.9881 1.633 3.6212 3.6211 3.6211 1.9882 0 3.6211-1.6331 3.6211-3.6211s-1.6329-3.6211-3.6211-3.6211zm0 2c.9073 0 1.6211.7139 1.6211 1.6211 0 .9071-.7138 1.6211-1.6211 1.6211-.9072 0-1.6211-.7139-1.6211-1.6211 0-.9073.7139-1.6212 1.6211-1.6211z" stroke-miterlimit="10"/><path d="m621.88-563.25c-1.988-.0001-3.6215 1.6328-3.6215 3.6211s1.6335 3.6212 3.6215 3.6211c1.988 0 3.621-1.6329 3.621-3.6211 0-1.9883-1.633-3.6211-3.621-3.6211zm0 2c.907 0 1.621.7142 1.621 1.6211s-.714 1.6211-1.621 1.6211-1.621-.714-1.621-1.6211.714-1.6212 1.621-1.6211z" stroke-miterlimit="10"/></g></svg>