<svg clip-rule="evenodd" fill-rule="evenodd" height="512" image-rendering="optimizeQuality" shape-rendering="geometricPrecision" text-rendering="geometricPrecision" viewBox="0 0 4335 4335" width="512" xmlns="http://www.w3.org/2000/svg"><g id="Layer_x0020_1"><path d="m2985 3701h-2383c-85 0-85-132 0-132h2383c85 0 85 132 0 132zm885 548h-3488c-211 0-382-171-382-382v-3715c0-36 30-66 66-66h3406c36 0 66 30 66 66v192h332c37 0 66 29 66 66v333h333c36 0 66 29 66 65v2977c0 256-209 464-465 464zm-332-3774v3310c0 143 91 265 218 312 207 76 447-75 447-312v-72c-171 101-398-22-398-228v-3010zm-3406-257v3649c0 138 112 250 250 250h3165c-95-92-136-203-141-332v-3567zm4071 3264v-2608h-267v2611c0 174 264 176 267-3zm-3362-2017-243-487v458c0 84-132 84-132 0v-736c0-67 95-90 125-29l243 486v-457c0-85 132-85 132 0v736c0 68-94 91-125 29zm680 36h-335c-36 0-66-29-66-65v-736c0-36 30-66 66-66h335c85 0 85 132 0 132h-269v236h269c85 0 85 131 0 131h-269v237h269c85 0 85 131 0 131zm880 0c-23 0-46-12-57-33l-240-429-239 429c-32 57-123 34-123-32v-736c0-85 131-85 131 0v483l174-311c24-44 90-44 114 0l174 311v-483c0-85 132-85 132 0v736c0 35-30 65-66 65zm470 0c-232 0-324-315-184-315 36 0 66 29 66 66 0 155 236 155 236 0 0-65-53-119-118-119-138 0-250-111-250-249s112-250 250-250c232 0 324 316 184 316-36 0-66-30-66-66 0-155-236-155-236 0 0 65 53 118 118 118 138 0 250 112 250 250 0 137-112 249-250 249zm-1458 1411h-930c-36 0-65-30-65-66v-930c0-36 29-65 65-65h930c36 0 65 29 65 65v930c0 36-29 66-65 66zm-864-132h798v-798h-798zm2454-767h-1211c-85 0-85-131 0-131h1211c84 0 84 131 0 131zm0 422h-1211c-85 0-85-131 0-131h1211c84 0 84 131 0 131zm0 422h-1211c-85 0-85-131 0-131h1211c84 0 84 131 0 131zm-18 422h-2383c-85 0-85-132 0-132h2383c85 0 85 132 0 132z"/></g></svg>