<svg height="512" viewBox="0 0 64 64" width="512" xmlns="http://www.w3.org/2000/svg"><path d="m23.26674 50.99948h20a3.00328 3.00328 0 0 0 3-3v-4a3.00328 3.00328 0 0 0 -3-3h-20a3.00329 3.00329 0 0 0 -3 3v4a3.00328 3.00328 0 0 0 3 3zm-1-7a1.00069 1.00069 0 0 1 1-1h20a1.00068 1.00068 0 0 1 1 1v4a1.00067 1.00067 0 0 1 -1 1h-20a1.00068 1.00068 0 0 1 -1-1z"/><path d="m39.26674 53.99948h-12a1 1 0 0 0 0 2h12a1.0001 1.0001 0 0 0 0-2z"/><path d="m60.59389 10.78659a3.976 3.976 0 0 0 -1.86719-2.43359l-6.92578-4.00293a4.02557 4.02557 0 0 0 -5.46 1.46973l-2.0002 3.4638c-.958 1.66907-3.13306 5.41779-4.074 7.05457v-4.33869a.97868.97868 0 0 0 -.02661-.18921c.22559-.04956-3.13208-4.29138-3.17871-4.41723l-2.99485-3.99317a1.03528 1.03528 0 0 0 -1.59961 0c-1.49915 2.01288-4.52588 6.01154-6.01392 8.0293a1.03813 1.03813 0 0 0 -.18628.57031v11.17676c-.01794-.03088-6.50561-11.27191-6.52075-11.29767l-2.49194-4.31757a3.988 3.988 0 0 0 -4.52417-1.8413l-1.57056-2.72022a2.00468 2.00468 0 0 0 -2.73242-.73242l-3.46387 2a2.00468 2.00468 0 0 0 -.73242 2.73242l1.57007 2.71912a3.99165 3.99165 0 0 0 -.66968 4.84045l.50122.86829-.86645.49988a3.01622 3.01622 0 0 0 -1.09668 4.09863l4.73144 8.19531a1.00036 1.00036 0 0 0 1.73242-1.00006l-4.73144-8.19623a.99951.99951 0 0 1 .36523-1.36523l.86573-.49969 6.08447 10.54052a5.01925 5.01925 0 0 0 1.5498 9.19794v21.10107a4.004 4.004 0 0 0 4 4h30a4.004 4.004 0 0 0 4-4v-21.103a4.999 4.999 0 0 0 .22388-9.72766l7.70093-13.34711a3.96512 3.96512 0 0 0 .40234-3.03512zm-27.32715-5.12011 1.5138 2.01812a4.119 4.119 0 0 1 -3.02759 0zm-2.75036 3.66662a6.03049 6.03049 0 0 0 5.50073 0l1.81506 2.41974a8.9343 8.9343 0 0 1 -9.13037-.00067zm-2.24964 4.45935a10.87222 10.87222 0 0 0 10 .00391v13.20312h-10zm-18.83984-9.79297 1.4991 2.5962-3.46468 1.99865-1.49832-2.59485zm-1.56055 11.29663c-.00488.00116-.99939-1.738-1.0039-1.739a2.01346 2.01346 0 0 1 .72168-2.72229c.00378-.00647 5.203-2.99646 5.209-3.00525a1.99346 1.99346 0 0 1 2.72754.72949l2.002 3.46857-8.65778 4.99837zm1.99854 3.46235 8.65771-4.99836 7.64112 13.23938h-10.897a4.96268 4.96268 0 0 0 -.61914.04432zm40.40185 39.241a2.0026 2.0026 0 0 1 -2 2h-30a2.0026 2.0026 0 0 1 -2-2v-21h34zm4-26a3.01885 3.01885 0 0 1 -3 2.99994l-36 .00006a3.00016 3.00016 0 0 1 0-5.99994l36-.00006a3.00328 3.00328 0 0 1 3 3.00002zm4.19336-19.17966-8.1811 14.17968h-10.01226v-1.58581l.39942.23132a.99994.99994 0 0 0 1.002-1.73053l-1.40137-.81152v-2.76483l.30335-.52533 2.599 1.50018a1.00016 1.00016 0 0 0 1-1.73242l-2.59864-1.5 1.5-2.59766 2.59864 1.5a1.00016 1.00016 0 1 0 1-1.73242l-2.59844-1.49982 1.5-2.59765 2.59839 1.49981a1.00016 1.00016 0 0 0 1-1.73242l-2.598-1.49963 1.50135-2.6a2.01632 2.01632 0 0 1 2.73437-.73535l6.9209 4a2.00788 2.00788 0 0 1 .73239 2.7344z"/></svg>