<svg id="Capa_1" enable-background="new 0 0 512.003 512.003" height="512" viewBox="0 0 512.003 512.003" width="512" xmlns="http://www.w3.org/2000/svg"><g><path d="m189.726 497h15v15h-15z"/><path d="m509.417 116.438c-1.457-21.807-7.062-52.979-25.487-77.647-19.228-25.74-47.672-38.791-84.542-38.791-31.225 0-58.314 10.46-78.342 30.251-20.331 20.09-33.023 49.63-36.705 85.426l14.922 1.534c3.321-32.294 14.499-58.675 32.326-76.291 17.161-16.957 40.606-25.92 67.799-25.92 31.882 0 56.282 11.024 72.524 32.768 26.647 35.673 25.908 92.197 18.569 125.777-18.71-9.521-39.443-12.02-58.206-6.783-17.425 4.865-31.089 16.063-38.474 31.534-15.421 32.304-11.814 75.536-7.996 121.307 2.93 35.121 5.959 71.438-.415 101.721-7.268 34.523-23.76 55.494-51.903 65.996-10.698 3.992-22.555 6.342-35.228 7.724 17.98-11.229 32.242-27.851 41.917-49.319 13.269-29.444 16.746-66.269 9.792-103.69-3.116-16.772-8.279-33.239-15.214-48.834l.038-.016c-25.711-61.017-37.992-115.365-36.502-161.535l-14.992-.483c-1.033 32.018 4.177 67.598 15.526 106.285-17.063-20.029-23.018-41.145-31.178-70.085-3.636-12.893-7.725-27.393-13.385-43.525 14.034-23.335 19.135-47.882 13.64-66.252l-1.262-4.217-4.296-.955c-7.889-1.755-16.644-1.234-25.798 1.379-2.709-14.093-8.2-26.023-15.86-34.189l-3.012-3.21-4.271 1.063c-18.341 4.567-35.641 22.79-46.917 49.151-27.109.714-51.154 12.56-69.68 34.37-15.571 18.333-26.108 42.601-28.907 66.582l-.308 2.63 1.413 2.24c14.319 22.708 37.839 38.674 71.724 48.625-15.448 25.466-17.137 48.309-17.16 60.768h-31.452v-15h15v-22.5c0-12.407-10.094-22.5-22.5-22.5h-22.499v-15h-15v15h-22.5c-12.406 0-22.5 10.093-22.5 22.5v22.5h15v37.501c0 20.677 16.822 37.5 37.5 37.5 7.183 0 14.226-2.104 20.245-5.979 2.312.633 4.743.978 7.253.978h42.899c-26.949 32.023-31.784 78.06-11.26 115.174h-12.029c-16.542 0-29.999 13.458-29.999 30s13.457 30 29.999 30h73.002v-15h-73.002c-8.271 0-14.999-6.729-14.999-15s6.729-15 14.999-15l40.829-.001-9.026-12.006c-28.884-38.417-21.128-93.17 17.287-122.053 18.61-13.992 41.559-19.897 64.607-16.634 23.053 3.265 43.454 15.312 57.445 33.922l11.99-9.015c-16.4-21.812-40.312-35.932-67.332-39.759-27.02-3.826-53.913 3.097-75.725 19.497-.385.289-.769.582-1.148.875h-58.537c-6.892 0-12.499-5.607-12.499-12.5s5.607-12.5 12.499-12.5h56.563v-7.5c0-.753-.02-1.657-.043-2.701-.246-10.977-.823-36.684 20.185-65.709l6.538-9.034-10.833-2.649c-34.229-8.369-57.613-22.313-71.377-42.582 2.896-19.999 12.166-40.737 25.095-55.959 11.282-13.282 30.998-29.115 60.858-29.115 11.06 0 21.698 2.097 31.619 6.233l4.227 1.762 3.498-2.954c16.16-13.646 33.016-20.926 46.115-20.176 2.304 14.561-3.167 34.138-14.889 52.474l-1.986 3.107 1.248 3.471c6.121 17.014 10.455 32.384 14.279 45.944 8.581 30.432 15.359 54.469 35.759 77.541 23.229 26.271 39.654 60.292 46.253 95.797 6.4 34.442 3.304 68.105-8.721 94.786-7.989 17.728-19.5 31.674-34.214 41.452-15.964 10.606-35.332 15.985-57.562 15.985h-15v15l19.898.002c1.666.001 3.324.002 4.981.002 34.408 0 66.839-.448 94.126-10.631 32.962-12.3 53.025-37.474 61.337-76.959 6.827-32.432 3.705-69.861.686-106.058-3.645-43.69-7.087-84.958 6.585-113.598 5.491-11.502 15.779-19.865 28.971-23.548 17.373-4.849 37.886-1.088 54.872 10.063l8.443 5.542 2.865-9.684c5.951-20.115 8.541-46.543 6.927-70.693zm-492.301 127.888c0-4.135 3.364-7.5 7.5-7.5h59.999c4.136 0 7.5 3.365 7.5 7.5v7.5h-74.999zm37.499 64.999c0 6.301 2.135 12.109 5.712 16.751-1.855.493-3.775.75-5.711.75-12.406 0-22.5-10.093-22.5-22.5v-37.501h44.999v15.463c-12.784 2.36-22.5 13.581-22.5 27.037zm147.629-237.014c-6.358-2.3-12.939-3.902-19.685-4.819 8.15-16.888 19.057-29.226 30.142-34.003 4.654 6.521 7.967 15.46 9.606 25.911-6.66 3.321-13.401 7.642-20.063 12.911z"/><path d="m142.164 116.955h15v15h-15z"/><path d="m439.474 49.422h15v15h-15z"/><path d="m454.474 79.422h15v15h-15z"/></g></svg>