<svg height="512" viewBox="0 0 64 64" width="512" xmlns="http://www.w3.org/2000/svg"><g id="Layer_23" data-name="Layer 23"><path d="m38 2h-12a9.01 9.01 0 0 0 -9 9v30a9.01 9.01 0 0 0 9 9h3v11a1 1 0 0 0 1 1h4a1 1 0 0 0 1-1v-11h3a9.01 9.01 0 0 0 9-9v-23h-2v23a7.008 7.008 0 0 1 -7 7h-12a7.008 7.008 0 0 1 -7-7v-30a7.008 7.008 0 0 1 7-7h12a7.008 7.008 0 0 1 7 7v5h2v-5a9.01 9.01 0 0 0 -9-9zm-5 48v10h-2v-10z"/><path d="m32 25a8 8 0 1 0 -8-8 8.009 8.009 0 0 0 8 8zm0-14a6 6 0 1 1 -6 6 6.006 6.006 0 0 1 6-6z"/><path d="m43 17a11 11 0 0 0 -22 0v1h2v-1a9 9 0 0 1 18 0v1h2z"/><path d="m32 30a8 8 0 1 0 8 8 8.009 8.009 0 0 0 -8-8zm0 14a6 6 0 1 1 6-6 6.006 6.006 0 0 1 -6 6z"/><path d="m43 39v-1a11 11 0 0 0 -22 0v1h2v-1a9 9 0 0 1 18 0v1z"/><path d="m51 25h5v2h-5z"/><path d="m50.12 14.25h5v2h-5z" transform="matrix(.866 -.5 .5 .866 -.577 28.348)"/><path d="m51.619 34.25h2v5h-2z" transform="matrix(.5 -.866 .866 .5 -5.517 63.945)"/><path d="m8 25h5v2h-5z"/><path d="m10.38 12.75h2v5h-2z" transform="matrix(.5 -.866 .866 .5 -7.517 17.481)"/><path d="m8.88 35.75h5v2h-5z" transform="matrix(.866 -.5 .5 .866 -16.848 10.611)"/></g></svg>